<mxfile host="app.diagrams.net" modified="2024-01-08T21:39:25.982Z" agent="Mozilla/5.0 (Windows NT 10.0; Win64; x64) AppleWebKit/537.36 (KHTML, like Gecko) Chrome/120.0.0.0 Safari/537.36" etag="aa13FDrE3hpTfqtncYvZ" version="22.1.17" type="device">
  <diagram name="Page-1" id="_kBdx59m5xkJ6XI0RrxY">
    <mxGraphModel dx="2247" dy="732" grid="1" gridSize="10" guides="1" tooltips="1" connect="1" arrows="1" fold="1" page="1" pageScale="1" pageWidth="827" pageHeight="1169" math="0" shadow="0">
      <root>
        <mxCell id="0" />
        <mxCell id="1" parent="0" />
        <mxCell id="dsNefd5nOvSLwHh5b7ko-42" value="" style="rounded=0;whiteSpace=wrap;html=1;" parent="1" vertex="1">
          <mxGeometry x="440" width="360" height="720" as="geometry" />
        </mxCell>
        <mxCell id="dsNefd5nOvSLwHh5b7ko-41" value="" style="rounded=0;whiteSpace=wrap;html=1;" parent="1" vertex="1">
          <mxGeometry x="-140" width="350" height="720" as="geometry" />
        </mxCell>
        <mxCell id="dsNefd5nOvSLwHh5b7ko-5" value="" style="group" parent="1" vertex="1" connectable="0">
          <mxGeometry x="10" y="110" width="170" height="120" as="geometry" />
        </mxCell>
        <mxCell id="dsNefd5nOvSLwHh5b7ko-1" value="" style="rounded=0;whiteSpace=wrap;html=1;" parent="dsNefd5nOvSLwHh5b7ko-5" vertex="1">
          <mxGeometry x="20" y="20" width="140" height="90" as="geometry" />
        </mxCell>
        <mxCell id="dsNefd5nOvSLwHh5b7ko-3" value="&lt;ul&gt;&lt;li&gt;Login&lt;/li&gt;&lt;li&gt;Password Client&lt;/li&gt;&lt;li&gt;TimeStamp&lt;/li&gt;&lt;li&gt;RandomNumber&lt;/li&gt;&lt;/ul&gt;" style="text;html=1;strokeColor=none;fillColor=none;align=left;verticalAlign=middle;whiteSpace=wrap;rounded=0;" parent="dsNefd5nOvSLwHh5b7ko-5" vertex="1">
          <mxGeometry width="170" height="120" as="geometry" />
        </mxCell>
        <mxCell id="dsNefd5nOvSLwHh5b7ko-10" value="" style="shape=flexArrow;endArrow=classic;html=1;rounded=0;exitX=0.5;exitY=1;exitDx=0;exitDy=0;fillColor=#f5f5f5;strokeColor=#666666;" parent="1" edge="1">
          <mxGeometry width="50" height="50" relative="1" as="geometry">
            <mxPoint x="94.5" y="230" as="sourcePoint" />
            <mxPoint x="94.5" y="300" as="targetPoint" />
          </mxGeometry>
        </mxCell>
        <mxCell id="dsNefd5nOvSLwHh5b7ko-20" value="Client Digest" style="rounded=1;whiteSpace=wrap;html=1;fillColor=#d5e8d4;strokeColor=#82b366;" parent="1" vertex="1">
          <mxGeometry x="35" y="310" width="120" height="60" as="geometry" />
        </mxCell>
        <mxCell id="dsNefd5nOvSLwHh5b7ko-23" value="Server Digest" style="rounded=1;whiteSpace=wrap;html=1;fillColor=#ffe6cc;strokeColor=#d79b00;" parent="1" vertex="1">
          <mxGeometry x="615" y="318" width="120" height="60" as="geometry" />
        </mxCell>
        <mxCell id="dsNefd5nOvSLwHh5b7ko-25" value="" style="group" parent="1" vertex="1" connectable="0">
          <mxGeometry x="590" y="100" width="138" height="130" as="geometry" />
        </mxCell>
        <mxCell id="dsNefd5nOvSLwHh5b7ko-8" value="" style="rounded=0;whiteSpace=wrap;html=1;" parent="dsNefd5nOvSLwHh5b7ko-25" vertex="1">
          <mxGeometry x="18" y="20" width="120" height="110" as="geometry" />
        </mxCell>
        <mxCell id="dsNefd5nOvSLwHh5b7ko-9" value="&lt;ul&gt;&lt;li&gt;Login&lt;/li&gt;&lt;li&gt;&lt;br&gt;&lt;/li&gt;&lt;li&gt;TimeStamp&lt;/li&gt;&lt;li style=&quot;border-color: var(--border-color);&quot;&gt;RandomNumber&lt;/li&gt;&lt;/ul&gt;" style="text;html=1;strokeColor=none;fillColor=none;align=left;verticalAlign=middle;whiteSpace=wrap;rounded=0;" parent="dsNefd5nOvSLwHh5b7ko-25" vertex="1">
          <mxGeometry width="135" height="120" as="geometry" />
        </mxCell>
        <mxCell id="dsNefd5nOvSLwHh5b7ko-36" value="&lt;span style=&quot;background-color: initial; text-align: left;&quot;&gt;&lt;font color=&quot;#ea6b66&quot;&gt;DB_Password&lt;/font&gt;&lt;/span&gt;" style="rounded=1;whiteSpace=wrap;html=1;fillColor=none;strokeColor=none;" parent="dsNefd5nOvSLwHh5b7ko-25" vertex="1">
          <mxGeometry x="35" y="39" width="90" height="30" as="geometry" />
        </mxCell>
        <mxCell id="dsNefd5nOvSLwHh5b7ko-26" value="" style="shape=flexArrow;endArrow=classic;html=1;rounded=0;exitX=1;exitY=0.5;exitDx=0;exitDy=0;entryX=0.044;entryY=0.583;entryDx=0;entryDy=0;entryPerimeter=0;fillColor=#f5f5f5;strokeColor=#666666;" parent="1" source="dsNefd5nOvSLwHh5b7ko-3" target="dsNefd5nOvSLwHh5b7ko-9" edge="1">
          <mxGeometry width="50" height="50" relative="1" as="geometry">
            <mxPoint x="370" y="390" as="sourcePoint" />
            <mxPoint x="540" y="170" as="targetPoint" />
          </mxGeometry>
        </mxCell>
        <mxCell id="dsNefd5nOvSLwHh5b7ko-27" value="" style="group" parent="1" vertex="1" connectable="0">
          <mxGeometry x="274" y="80" width="140" height="200" as="geometry" />
        </mxCell>
        <mxCell id="dsNefd5nOvSLwHh5b7ko-2" value="" style="rounded=0;whiteSpace=wrap;html=1;" parent="dsNefd5nOvSLwHh5b7ko-27" vertex="1">
          <mxGeometry x="20" y="20" width="120" height="180" as="geometry" />
        </mxCell>
        <mxCell id="dsNefd5nOvSLwHh5b7ko-4" value="&lt;ul&gt;&lt;li&gt;Login&lt;/li&gt;&lt;li&gt;&lt;br&gt;&lt;/li&gt;&lt;li&gt;TimeStamp&lt;/li&gt;&lt;li&gt;NbAleatoire&lt;/li&gt;&lt;/ul&gt;" style="text;html=1;strokeColor=none;fillColor=none;align=left;verticalAlign=middle;whiteSpace=wrap;rounded=0;" parent="dsNefd5nOvSLwHh5b7ko-27" vertex="1">
          <mxGeometry width="140" height="120" as="geometry" />
        </mxCell>
        <mxCell id="dsNefd5nOvSLwHh5b7ko-21" value="&lt;font style=&quot;font-size: 10px;&quot;&gt;Client Digest&lt;/font&gt;" style="rounded=1;whiteSpace=wrap;html=1;fillColor=#d5e8d4;strokeColor=#82b366;" parent="dsNefd5nOvSLwHh5b7ko-27" vertex="1">
          <mxGeometry x="40" y="150" width="80" height="40" as="geometry" />
        </mxCell>
        <mxCell id="dsNefd5nOvSLwHh5b7ko-48" value="ClientCert" style="rounded=1;whiteSpace=wrap;html=1;fillColor=#e1d5e7;strokeColor=#9673a6;" parent="dsNefd5nOvSLwHh5b7ko-27" vertex="1">
          <mxGeometry x="40" y="110" width="80" height="31" as="geometry" />
        </mxCell>
        <mxCell id="dsNefd5nOvSLwHh5b7ko-19" value="" style="curved=1;endArrow=classic;html=1;rounded=0;exitX=1;exitY=0.5;exitDx=0;exitDy=0;entryX=0;entryY=0.5;entryDx=0;entryDy=0;fillColor=#d5e8d4;strokeColor=#82b366;" parent="1" source="dsNefd5nOvSLwHh5b7ko-20" target="dsNefd5nOvSLwHh5b7ko-21" edge="1">
          <mxGeometry width="50" height="50" relative="1" as="geometry">
            <mxPoint x="196" y="432" as="sourcePoint" />
            <mxPoint x="330" y="290" as="targetPoint" />
            <Array as="points">
              <mxPoint x="240" y="340" />
              <mxPoint x="200" y="250" />
            </Array>
          </mxGeometry>
        </mxCell>
        <mxCell id="dsNefd5nOvSLwHh5b7ko-28" value="Client Digest" style="rounded=1;whiteSpace=wrap;html=1;fillColor=#d5e8d4;strokeColor=#82b366;" parent="1" vertex="1">
          <mxGeometry x="460" y="318" width="120" height="60" as="geometry" />
        </mxCell>
        <mxCell id="dsNefd5nOvSLwHh5b7ko-29" value="" style="endArrow=classic;html=1;rounded=0;fillColor=#d5e8d4;strokeColor=#82b366;" parent="1" edge="1">
          <mxGeometry width="50" height="50" relative="1" as="geometry">
            <mxPoint x="399" y="255" as="sourcePoint" />
            <mxPoint x="470" y="310" as="targetPoint" />
          </mxGeometry>
        </mxCell>
        <mxCell id="dsNefd5nOvSLwHh5b7ko-30" value="&lt;font style=&quot;font-size: 33px;&quot;&gt;=&lt;/font&gt;" style="text;html=1;strokeColor=none;fillColor=none;align=center;verticalAlign=middle;whiteSpace=wrap;rounded=0;" parent="1" vertex="1">
          <mxGeometry x="573" y="341" width="50" height="30" as="geometry" />
        </mxCell>
        <mxCell id="dsNefd5nOvSLwHh5b7ko-31" value="&lt;font style=&quot;font-size: 37px;&quot;&gt;&lt;b&gt;?&lt;/b&gt;&lt;/font&gt;" style="text;html=1;strokeColor=none;fillColor=none;align=center;verticalAlign=middle;whiteSpace=wrap;rounded=0;" parent="1" vertex="1">
          <mxGeometry x="572" y="321" width="50" height="30" as="geometry" />
        </mxCell>
        <mxCell id="dsNefd5nOvSLwHh5b7ko-32" value="DB" style="shape=datastore;whiteSpace=wrap;html=1;fillColor=#f8cecc;strokeColor=#b85450;" parent="1" vertex="1">
          <mxGeometry x="890" y="120" width="60" height="60" as="geometry" />
        </mxCell>
        <mxCell id="dsNefd5nOvSLwHh5b7ko-33" value="" style="endArrow=classic;html=1;rounded=0;exitX=0;exitY=0.5;exitDx=0;exitDy=0;entryX=1.037;entryY=0.583;entryDx=0;entryDy=0;entryPerimeter=0;" parent="1" source="dsNefd5nOvSLwHh5b7ko-32" target="dsNefd5nOvSLwHh5b7ko-9" edge="1">
          <mxGeometry width="50" height="50" relative="1" as="geometry">
            <mxPoint x="810" y="230" as="sourcePoint" />
            <mxPoint x="700" y="150" as="targetPoint" />
          </mxGeometry>
        </mxCell>
        <mxCell id="dsNefd5nOvSLwHh5b7ko-43" value="&lt;font style=&quot;font-size: 24px;&quot;&gt;Client&lt;/font&gt;" style="text;html=1;strokeColor=none;fillColor=none;align=center;verticalAlign=middle;whiteSpace=wrap;rounded=0;" parent="1" vertex="1">
          <mxGeometry x="-130" y="10" width="80" height="40" as="geometry" />
        </mxCell>
        <mxCell id="dsNefd5nOvSLwHh5b7ko-44" value="&lt;font style=&quot;font-size: 24px;&quot;&gt;Server&lt;/font&gt;" style="text;html=1;strokeColor=none;fillColor=none;align=center;verticalAlign=middle;whiteSpace=wrap;rounded=0;" parent="1" vertex="1">
          <mxGeometry x="460" y="15" width="60" height="30" as="geometry" />
        </mxCell>
        <mxCell id="dsNefd5nOvSLwHh5b7ko-45" value="" style="shape=flexArrow;endArrow=classic;html=1;rounded=0;fillColor=#f5f5f5;strokeColor=#666666;" parent="1" edge="1">
          <mxGeometry width="50" height="50" relative="1" as="geometry">
            <mxPoint x="491" y="530" as="sourcePoint" />
            <mxPoint x="129.84" y="530.33" as="targetPoint" />
          </mxGeometry>
        </mxCell>
        <mxCell id="dsNefd5nOvSLwHh5b7ko-51" value="" style="group" parent="1" vertex="1" connectable="0">
          <mxGeometry x="260" y="440" width="140" height="150" as="geometry" />
        </mxCell>
        <mxCell id="dsNefd5nOvSLwHh5b7ko-50" value="" style="rounded=0;whiteSpace=wrap;html=1;" parent="dsNefd5nOvSLwHh5b7ko-51" vertex="1">
          <mxGeometry y="20" width="140" height="130" as="geometry" />
        </mxCell>
        <mxCell id="dsNefd5nOvSLwHh5b7ko-58" value="SessionKey [Crypt]" style="rounded=1;whiteSpace=wrap;html=1;fillColor=#fff2cc;strokeColor=#d6b656;" parent="dsNefd5nOvSLwHh5b7ko-51" vertex="1">
          <mxGeometry x="10" y="90" width="120" height="40" as="geometry" />
        </mxCell>
        <mxCell id="dsNefd5nOvSLwHh5b7ko-53" value="YES / NO" style="rounded=1;whiteSpace=wrap;html=1;" parent="dsNefd5nOvSLwHh5b7ko-51" vertex="1">
          <mxGeometry x="27" y="40" width="86" height="35" as="geometry" />
        </mxCell>
        <mxCell id="dsNefd5nOvSLwHh5b7ko-54" value="SessionKey&amp;nbsp;" style="rounded=1;whiteSpace=wrap;html=1;fillColor=#fff2cc;strokeColor=#d6b656;" parent="1" vertex="1">
          <mxGeometry x="635" y="553" width="110" height="45" as="geometry" />
        </mxCell>
        <mxCell id="dsNefd5nOvSLwHh5b7ko-60" value="" style="curved=1;endArrow=classic;html=1;rounded=0;exitX=0;exitY=0.5;exitDx=0;exitDy=0;entryX=1;entryY=0.75;entryDx=0;entryDy=0;" parent="1" source="dsNefd5nOvSLwHh5b7ko-68" target="dsNefd5nOvSLwHh5b7ko-58" edge="1">
          <mxGeometry width="50" height="50" relative="1" as="geometry">
            <mxPoint x="623" y="557" as="sourcePoint" />
            <mxPoint x="380" y="550" as="targetPoint" />
            <Array as="points">
              <mxPoint x="520" y="590" />
              <mxPoint x="450" y="610" />
            </Array>
          </mxGeometry>
        </mxCell>
        <mxCell id="dsNefd5nOvSLwHh5b7ko-61" value="Client PublicKey" style="rounded=1;whiteSpace=wrap;html=1;fillColor=#dae8fc;strokeColor=#6c8ebf;" parent="1" vertex="1">
          <mxGeometry x="1" y="470" width="79" height="46" as="geometry" />
        </mxCell>
        <mxCell id="dsNefd5nOvSLwHh5b7ko-63" value="SessionKey&amp;nbsp;" style="rounded=1;whiteSpace=wrap;html=1;fillColor=#fff2cc;strokeColor=#d6b656;" parent="1" vertex="1">
          <mxGeometry x="6" y="608" width="110" height="45" as="geometry" />
        </mxCell>
        <mxCell id="dsNefd5nOvSLwHh5b7ko-67" value="" style="group" parent="1" vertex="1" connectable="0">
          <mxGeometry x="640" y="460" width="110" height="90" as="geometry" />
        </mxCell>
        <mxCell id="dsNefd5nOvSLwHh5b7ko-64" value="" style="rounded=1;whiteSpace=wrap;html=1;fillColor=#e1d5e7;strokeColor=#9673a6;" parent="dsNefd5nOvSLwHh5b7ko-67" vertex="1">
          <mxGeometry width="110" height="90" as="geometry" />
        </mxCell>
        <mxCell id="dsNefd5nOvSLwHh5b7ko-52" value="Client PublicKey" style="rounded=1;whiteSpace=wrap;html=1;fillColor=#dae8fc;strokeColor=#6c8ebf;" parent="dsNefd5nOvSLwHh5b7ko-67" vertex="1">
          <mxGeometry x="25" y="38" width="80" height="45" as="geometry" />
        </mxCell>
        <mxCell id="dsNefd5nOvSLwHh5b7ko-65" value="ClientCert" style="text;html=1;strokeColor=none;fillColor=none;align=center;verticalAlign=middle;whiteSpace=wrap;rounded=0;" parent="dsNefd5nOvSLwHh5b7ko-67" vertex="1">
          <mxGeometry x="10" y="5" width="60" height="30" as="geometry" />
        </mxCell>
        <mxCell id="dsNefd5nOvSLwHh5b7ko-57" value="" style="shape=image;html=1;verticalAlign=top;verticalLabelPosition=bottom;labelBackgroundColor=#ffffff;imageAspect=0;aspect=fixed;image=https://cdn1.iconfinder.com/data/icons/seo-and-web-development-6/32/development_setting_gear_cogwheel-71-128.png" parent="1" vertex="1">
          <mxGeometry x="626" y="512" width="48" height="48" as="geometry" />
        </mxCell>
        <mxCell id="dsNefd5nOvSLwHh5b7ko-68" value="SessionKey&amp;nbsp;[Crypt]" style="rounded=1;whiteSpace=wrap;html=1;fillColor=#fff2cc;strokeColor=#d6b656;" parent="1" vertex="1">
          <mxGeometry x="622" y="650" width="120" height="40" as="geometry" />
        </mxCell>
        <mxCell id="dsNefd5nOvSLwHh5b7ko-69" value="SessionKey&amp;nbsp;[Crypt]" style="rounded=1;whiteSpace=wrap;html=1;fillColor=#fff2cc;strokeColor=#d6b656;" parent="1" vertex="1">
          <mxGeometry x="1" y="520" width="120" height="40" as="geometry" />
        </mxCell>
        <mxCell id="dsNefd5nOvSLwHh5b7ko-62" value="" style="shape=image;html=1;verticalAlign=top;verticalLabelPosition=bottom;labelBackgroundColor=#ffffff;imageAspect=0;aspect=fixed;image=https://cdn1.iconfinder.com/data/icons/seo-and-web-development-6/32/development_setting_gear_cogwheel-71-128.png" parent="1" vertex="1">
          <mxGeometry x="69" y="481" width="48" height="48" as="geometry" />
        </mxCell>
        <mxCell id="dsNefd5nOvSLwHh5b7ko-70" value="" style="shape=flexArrow;endArrow=classic;html=1;rounded=0;entryX=0.5;entryY=0;entryDx=0;entryDy=0;fillColor=#f5f5f5;strokeColor=#666666;" parent="1" target="dsNefd5nOvSLwHh5b7ko-63" edge="1">
          <mxGeometry width="50" height="50" relative="1" as="geometry">
            <mxPoint x="61" y="563" as="sourcePoint" />
            <mxPoint x="-100" y="530" as="targetPoint" />
          </mxGeometry>
        </mxCell>
        <mxCell id="dsNefd5nOvSLwHh5b7ko-72" value="" style="shape=flexArrow;endArrow=classic;html=1;rounded=0;entryX=0.5;entryY=0;entryDx=0;entryDy=0;fillColor=#f5f5f5;strokeColor=#666666;" parent="1" target="dsNefd5nOvSLwHh5b7ko-68" edge="1">
          <mxGeometry width="50" height="50" relative="1" as="geometry">
            <mxPoint x="682" y="600" as="sourcePoint" />
            <mxPoint x="759" y="597" as="targetPoint" />
          </mxGeometry>
        </mxCell>
        <mxCell id="dsNefd5nOvSLwHh5b7ko-73" value="" style="curved=1;endArrow=classic;html=1;rounded=0;entryX=1;entryY=0.75;entryDx=0;entryDy=0;exitX=0;exitY=0.5;exitDx=0;exitDy=0;" parent="1" source="dsNefd5nOvSLwHh5b7ko-58" target="dsNefd5nOvSLwHh5b7ko-69" edge="1">
          <mxGeometry width="50" height="50" relative="1" as="geometry">
            <mxPoint x="260" y="720" as="sourcePoint" />
            <mxPoint x="310" y="670" as="targetPoint" />
            <Array as="points">
              <mxPoint x="210" y="540" />
              <mxPoint x="180" y="570" />
            </Array>
          </mxGeometry>
        </mxCell>
        <mxCell id="dsNefd5nOvSLwHh5b7ko-47" value="" style="curved=1;endArrow=classic;html=1;rounded=0;exitX=0.5;exitY=1;exitDx=0;exitDy=0;entryX=1;entryY=0.5;entryDx=0;entryDy=0;fillColor=#f5f5f5;strokeColor=#666666;" parent="1" source="dsNefd5nOvSLwHh5b7ko-30" target="dsNefd5nOvSLwHh5b7ko-53" edge="1">
          <mxGeometry width="50" height="50" relative="1" as="geometry">
            <mxPoint x="605.5" y="390" as="sourcePoint" />
            <mxPoint x="552.5" y="534" as="targetPoint" />
            <Array as="points">
              <mxPoint x="600" y="440" />
              <mxPoint x="500" y="490" />
            </Array>
          </mxGeometry>
        </mxCell>
        <mxCell id="dsNefd5nOvSLwHh5b7ko-141" value="Get or Generate Client KeyPair&lt;br&gt;+&lt;br&gt;&amp;nbsp;Client Certificate" style="rounded=1;whiteSpace=wrap;html=1;fillColor=#d0cee2;strokeColor=#56517e;" parent="1" vertex="1">
          <mxGeometry x="-30" y="40" width="196" height="60" as="geometry" />
        </mxCell>
        <mxCell id="dsNefd5nOvSLwHh5b7ko-142" value="" style="curved=1;endArrow=classic;html=1;rounded=0;exitX=1;exitY=0.5;exitDx=0;exitDy=0;entryX=0;entryY=0.5;entryDx=0;entryDy=0;fillColor=#e1d5e7;strokeColor=#9673a6;" parent="1" source="dsNefd5nOvSLwHh5b7ko-141" target="dsNefd5nOvSLwHh5b7ko-48" edge="1">
          <mxGeometry width="50" height="50" relative="1" as="geometry">
            <mxPoint x="230" y="100" as="sourcePoint" />
            <mxPoint x="280" y="50" as="targetPoint" />
            <Array as="points">
              <mxPoint x="210" y="80" />
              <mxPoint x="190" y="140" />
              <mxPoint x="240" y="180" />
            </Array>
          </mxGeometry>
        </mxCell>
        <mxCell id="dsNefd5nOvSLwHh5b7ko-144" value="" style="curved=1;endArrow=classic;html=1;rounded=0;exitX=1;exitY=0.5;exitDx=0;exitDy=0;fillColor=#e1d5e7;strokeColor=#9673a6;" parent="1" source="dsNefd5nOvSLwHh5b7ko-48" edge="1">
          <mxGeometry width="50" height="50" relative="1" as="geometry">
            <mxPoint x="500" y="240" as="sourcePoint" />
            <mxPoint x="750" y="500" as="targetPoint" />
            <Array as="points">
              <mxPoint x="450" y="200" />
              <mxPoint x="450" y="250" />
              <mxPoint x="660" y="260" />
              <mxPoint x="850" y="260" />
              <mxPoint x="860" y="380" />
              <mxPoint x="860" y="510" />
            </Array>
          </mxGeometry>
        </mxCell>
        <mxCell id="dsNefd5nOvSLwHh5b7ko-18" value="" style="shape=flexArrow;endArrow=classic;html=1;rounded=0;movable=1;resizable=1;rotatable=1;deletable=1;editable=1;locked=0;connectable=1;exitX=0.6;exitY=1.036;exitDx=0;exitDy=0;exitPerimeter=0;fillColor=#f5f5f5;strokeColor=#666666;" parent="1" source="dsNefd5nOvSLwHh5b7ko-8" edge="1">
          <mxGeometry width="50" height="50" relative="1" as="geometry">
            <mxPoint x="681" y="242" as="sourcePoint" />
            <mxPoint x="680" y="310" as="targetPoint" />
          </mxGeometry>
        </mxCell>
      </root>
    </mxGraphModel>
  </diagram>
</mxfile>
